<?xml version="1.0" encoding="utf-8"?>
<!-- Generator: Adobe Illustrator 21.0.0, SVG Export Plug-In . SVG Version: 6.00 Build 0)  -->
<svg version="1.1" id="Ebene_1" xmlns="http://www.w3.org/2000/svg" xmlns:xlink="http://www.w3.org/1999/xlink" x="0px" y="0px"
	 viewBox="0 0 36.1 36.8" style="enable-background:new 0 0 36.1 36.8;" xml:space="preserve">
<style type="text/css">
	.st0{fill:#333333;}
</style>
<g>
	<path class="st0" d="M32,13.1l0.3,0.2h0.3v-0.6l0.9-0.1l0.9,0.7h1.5l0.1-0.1c-0.1-0.5-0.3-1-0.5-1.5l-1,0l-0.5-0.5L34,10.4
		l-0.5,0.3l-0.3,1l-0.7-0.8l0-0.7l-0.7-0.6l-0.3-0.3h-0.8l0.2,0.7l1,0.5l0.2,0.2L32,10.9l0,0.6l-0.5,0.2l-0.4-0.1l-0.2-0.4l0.6,0
		l0.2-0.2l-1.4-1l-0.1-0.4l-0.6,0.5L29,10.1l-0.9,1.2l-0.2,0.5l-0.6,0.1l-0.9,0l-0.5-0.2l-0.1-1L26,10l0.9-0.2l0.9,0.2l0.1-0.5
		l-0.4-0.1l0.1-0.8l0.9-0.1l0.7-0.9l0.7-0.1l0.6,0.1h0.2l-0.1-0.9l-0.8,0.3l-0.3-0.7l-0.4-0.1l-0.1-0.5l0.4-0.4L30.3,5l0.2-0.4
		C27.3,1.7,23.1,0,18.4,0c-4,0-7.8,1.3-10.8,3.5l0.9,0l0.4,0.2l0.8,0.2l0.1,0.3l1.2,0l-0.2-0.4l-1.1,0L10,3.6L9.9,3.3h-1L10,2.5h1
		l0.5,0.7l0.8,0l0.5-0.5l0.4,0.2l-0.7,0.7c0,0-0.9,0-0.9,0c0,0,0.1,0.6,0.1,0.6l1.1,0L13,3.9l0.8,0l0.1-0.5l-0.5-0.1l0.2-0.4
		l0.4-0.1l1.2,0.1l-0.7,0.6l0.1,0.5l0.7,0.1l0-0.9l0.7-0.4l1.2-0.1l1.7,0.8v0.7l0.5,0.1l-0.3,0.5h-0.8l-0.2,0.6L16.3,5l1.4-0.7
		l-0.5-0.5l-1.2,0.2L15.8,4h0l0,0l-0.3,0.4l-0.6,0l0,0.3l0.2,0.1l0,0.1L14.7,5l0,0.3l-0.4,0l-0.1-0.5L13.3,5l-1.6,1l0.2,0.7l0.5,0.3
		L13.2,7v1L13.6,8L14,7.2l1-0.3V5.6l0.5-0.4l1.3,0.3l-0.1,0.8h0.4l1-0.5l0,1.1l0.7,0.4l0,0.6l-0.7,0.2l0,0.2L19,8.9l0,0.4l-0.2,0
		c0,0,0,0,0,0l-1-0.3l0-0.3L18,8.5V8.2l-0.3-0.1l-0.1,0.3L17,8.5l-0.1,0v0l-0.2,0l-0.2-0.3l-0.2-0.1H16l-0.2,0.2v0.3l0.3,0.1l0.3,0
		l-0.1,0l-0.3,0.3L16,8.9l-0.3-0.1l-0.8,0.8L15,9.7l-1.2,0.7l-1.1,1.2l-0.1,0.5l-1.1,0.7l-0.6,0.6l0.1,1.1l-0.8-0.4l0-0.7l-2.2,0
		l-1.1,0.6L6.4,15l-0.2,0.7l0.3,0.7l0.9,0.1l1.4-0.9L8.9,16l-0.4,0.8L9.5,17l0.1,1.7l1.5,0.2l0.9-1.1l1.1,0.2l0.4,0.6l1.1-0.1l0-0.3
		l0.6,0.3l0.7,1.1l1.2,0l0.4,0.8l0.1,0.9l1.3,0.5l1.6,0l0.5,0.8l0.7,0.2l-0.1,0.6l-0.8,1l-0.2,2.2l-0.7,0.6l-1.1,0l-0.4,0.6l0.3,1.1
		l-1.1,1.5l-0.4,0.7l-1.1,0.5l-0.7,0.1l0,0.3l0.5,0.1l-0.1,0.3l-0.4,0.4l0.3,0.3l0.5,0l0,0.4L16,34.1l0,0.3l0.8,0.7l-0.1,0.4l-1.1,0
		l-1.1-0.9L13.6,33l0.1-1.4l-0.6-0.9l0.3-1.5L13,29.1V26c0,0-1.1-0.8-1.1-0.8c-0.1,0-0.6-0.1-0.6-0.1l-0.1-0.6l-1.4-1.7l0.1-0.6l0-1
		l1-0.7l-0.1-1.1l-1.4-0.1l-1.1-1.3l-0.8-0.2L7,17.6L7,17.1L6.4,17v0.3l-1.6-0.4l-0.6-1l0.3-0.5l-1-1.5l-0.2-1.1H2.8l0.1,1.1L3.6,15
		l-0.1,0.4L3,15.3l-0.7-1.2v-1.5l-0.8-0.4v-1C0.5,13.4,0,15.8,0,18.4c0,10.1,8.3,18.4,18.4,18.4c5.7,0,10.9-2.7,14.3-6.8h-0.6v-1.2
		l-0.7-0.9v-1.5l-0.5-0.5l0-0.6l0.7-1.3l-1.3-2.3l0.2-1.5L29.2,20l-0.4-0.4H28l-0.4,0.4h-1.4l0,0.1h-0.8l-1.8-2l0-1.6l0.3-0.1
		l0.1-0.6h-0.4l-0.2-0.6l2-1.5v-1l1-0.5l0.4,0h0.8l0.6-0.3l2.1-0.2v1.1L32,13.1z M26.9,6.5L27,6.3l0.6-0.1l0.2,0.7l0.3,0.5l0.2,0.2
		l0.4,0.2l-0.4,0.4l-0.7,0.1h-0.5l0.1-0.6l0.4-0.1l0-0.3L27.2,7l-0.3-0.2V6.5z M25.9,7.7l0.4-0.6L26.7,7l0.4,0.2l0,0.4L26.3,8h-0.4
		V7.7z M15.9,9.9l-0.4,0l0-0.3l0.2-0.2l0.2,0.2L15.9,9.9z M17.2,9.5l-0.3,0l-0.1,0.3l-0.2,0.1l-0.3,0c0-0.1,0-0.1,0-0.1h-0.1V9.5
		h0.5l0.1-0.3l0.2,0l0.2,0L17.2,9.5z M17.2,9.5"/>
</g>
</svg>
