<svg width="135" height="40" viewBox="0 0 135 40" xmlns="http://www.w3.org/2000/svg"><title>playstore</title><g fill="none" fill-rule="evenodd"><path d="M130.197 40H4.729A4.74 4.74 0 0 1 0 35.267V4.726A4.733 4.733 0 0 1 4.729 0h125.468C132.803 0 135 2.12 135 4.726v30.541c0 2.605-2.197 4.733-4.803 4.733z" fill="#A6A6A6"/><path d="M134.142 35.378a3.83 3.83 0 0 1-3.834 3.83H4.839A3.835 3.835 0 0 1 1 35.378V4.835A3.84 3.84 0 0 1 4.839 1h125.468a3.834 3.834 0 0 1 3.834 3.835l.001 30.543z" fill="#000"/><path d="M44.502 9.66h2.984a2.471 2.471 0 0 1 .06.535c-.001.391-.06.76-.18 1.105a2.56 2.56 0 0 1-.56.927 2.815 2.815 0 0 1-.978.671c-.38.159-.813.238-1.3.238-.443 0-.859-.08-1.25-.238a3.11 3.11 0 0 1-1.708-1.67 3.133 3.133 0 0 1-.255-1.271c0-.459.084-.883.255-1.27.17-.389.399-.725.688-1.008a3.11 3.11 0 0 1 1.02-.663 3.291 3.291 0 0 1 1.25-.238c.493 0 .933.085 1.321.255.388.17.721.405.999.706l-.79.773c-.199-.21-.42-.37-.663-.48a2.108 2.108 0 0 0-.876-.166c-.278 0-.541.05-.79.149-.25.099-.468.24-.655.42-.187.182-.336.401-.446.66-.11.257-.166.545-.166.862 0 .317.055.605.166.863a1.973 1.973 0 0 0 1.109 1.08c.25.098.516.148.799.148.323 0 .596-.047.82-.14.224-.094.415-.214.574-.361.113-.103.211-.231.293-.387.082-.156.146-.33.192-.523h-1.913V9.66zm5.143-1.658v1.411h2.439v1.088h-2.44v1.411h2.712V13h-3.859V6.914h3.859v1.088h-2.711zM54.702 13V8.002h-1.7V6.914h4.548v1.088h-1.7V13h-1.148zm5.534-6.086h1.147V13h-1.147V6.914zM63.899 13V8.002h-1.7V6.914h4.548v1.088h-1.7V13h-1.148zm8.415.136c-.453 0-.874-.082-1.262-.246a3.103 3.103 0 0 1-1.007-.676 3.209 3.209 0 0 1-.91-2.257 3.209 3.209 0 0 1 .91-2.257c.283-.286.619-.511 1.007-.675a3.204 3.204 0 0 1 1.262-.247c.453 0 .874.082 1.262.247.388.164.724.39 1.008.675a3.209 3.209 0 0 1 .91 2.257 3.209 3.209 0 0 1-.91 2.257c-.284.286-.62.511-1.008.676a3.204 3.204 0 0 1-1.262.246zm0-1.088c.283 0 .548-.051.795-.153a1.933 1.933 0 0 0 1.08-1.084c.104-.258.157-.542.157-.854 0-.312-.053-.596-.158-.854a1.933 1.933 0 0 0-1.08-1.084 2.058 2.058 0 0 0-.794-.153c-.283 0-.548.051-.795.153a1.933 1.933 0 0 0-1.08 1.084 2.248 2.248 0 0 0-.156.854c0 .312.052.596.157.854a1.933 1.933 0 0 0 1.08 1.084c.246.102.51.153.794.153zm4.106-5.134h1.334l2.448 4.08h.068l-.068-1.173V6.914h1.139V13h-1.207L77.55 8.69h-.068l.068 1.174V13h-1.13V6.914zM53.91 23.64c.615 4.586-2.517 7.226-6.27 7.192-3.698-.005-6.695-2.994-6.695-6.689a6.692 6.692 0 0 1 6.695-6.688c1.938 0 3.566.678 4.677 1.856l-1.266 1.248c-.84-.804-2.044-1.242-3.355-1.242a4.828 4.828 0 0 0-4.83 4.826 4.828 4.828 0 0 0 4.83 4.827c2.316 0 4.158-1.144 4.463-3.616-.884.003-4.463 0-4.463 0v-1.713l6.215-.002zm67.078 6.513l-1.694 4.029h1.816l4.912-11.683h-1.816l-2.31 5.495-2.33-5.54h-1.815l3.237 7.7zm-5.223-.427v.906h1.816v-5.524a.3.3 0 0 0 0-.01c0-.735-.538-2.916-3.695-2.916-2.54 0-3.386 1.747-3.386 1.747l1.512.895s.365-.895 2.019-.895c1.203 0 1.604.91 1.734 1.405v.374c-.528-.257-1.669-.66-3.299-.418-2.301.342-2.158 2.498-2.158 2.677 0 .178.001 2.821 2.894 2.64 1.263-.079 2.063-.467 2.563-.88zM103.197 17.91s2.963.505 2.963 3.912-2.963 3.912-2.963 3.912h-3.791v4.901h-1.81V17.909h5.6zm-.655 1.893s1.59 0 1.59 2.099-1.59 2.099-1.59 2.099h-3.13v-4.198h3.13zm4.677-1.893h1.816v12.727h-1.816V17.91zM115.635 27s-3.498-.944-3.62 1.024c-.121 1.968 3.356 1.023 3.667-.372 0-.444-.047-.652-.047-.652zm-22.104-1.57s-.796-3.248-3.84-3.248c-3.045 0-4.079 2.745-4.079 4.366 0 1.683 1.303 4.273 4.262 4.273 2.408 0 3.584-1.904 3.584-1.904L92 27.93s-.763 1.207-2.115 1.2c-1.727-.008-2.098-1.323-2.098-1.323l5.743-2.376zm-2.185-.674s-.723-1.1-1.83-.897c-2.345.429-2.05 2.483-2.05 2.483l3.88-1.586zm-8.458-6.847h1.921v12.7h-1.92v-12.7zm-3.074 4.549v.792s-.772-1.112-2.378-1.067c-2.005.057-4.08 1.608-4.08 4.321 0 2.713 2.204 4.305 4.059 4.305 1.71 0 2.4-1.08 2.4-1.08v.87c0 .62-.233 2.434-2.224 2.434-1.748 0-2.245-1.567-2.245-1.567l-1.63.687s.925 2.543 3.79 2.543c2.867 0 4.084-2.162 4.084-4.21v-8.013l-1.776-.015zm-2.247 6.722c1.294 0 2.344-1.188 2.344-2.653s-1.05-2.653-2.344-2.653c-1.295 0-2.345 1.188-2.345 2.653s1.05 2.653 2.345 2.653zm-9.331 1.638a4.32 4.32 0 0 0 4.322-4.318 4.32 4.32 0 0 0-4.322-4.318 4.32 4.32 0 0 0-4.322 4.318 4.32 4.32 0 0 0 4.322 4.318zm-.028-1.693c1.342 0 2.43-1.175 2.43-2.625s-1.088-2.625-2.43-2.625-2.43 1.175-2.43 2.625 1.088 2.625 2.43 2.625zm-9.323 1.693a4.32 4.32 0 0 0 4.322-4.318 4.32 4.32 0 0 0-4.322-4.318 4.32 4.32 0 0 0-4.322 4.318 4.32 4.32 0 0 0 4.322 4.318zm-.028-1.693c1.341 0 2.43-1.175 2.43-2.625s-1.089-2.625-2.43-2.625c-1.342 0-2.43 1.175-2.43 2.625s1.088 2.625 2.43 2.625z" fill="#FFF"/><path d="M27.79 15.854L11.647 6.95c-.457-.251-.88-.31-1.222-.203L23.649 20.01l4.141-4.156z" fill="#09EB78"/><path d="M27.812 24.187l5.51-3.04c1.118-.618 1.118-1.626 0-2.242l-5.531-3.051-4.143 4.156 4.164 4.177z" fill="#FDC503"/><path d="M10.424 6.748c-.49.154-.809.652-.809 1.407l.003 23.742c0 .745.308 1.238.786 1.402l13.245-13.286L10.424 6.748z" fill="#01CDFF"/><path d="M10.404 33.299c.343.116.774.062 1.243-.196l16.164-8.916-4.162-4.174-13.245 13.286z" fill="#EF3C4F"/></g></svg>